<?xml version="1.0" encoding="UTF-8"?>
<svg xmlns="http://www.w3.org/2000/svg" xmlns:xlink="http://www.w3.org/1999/xlink" width="20px" height="20px" viewBox="0 0 20 20" version="1.1">
<g id="surface1">
<path style=" stroke:none;fill-rule:nonzero;fill:rgb(75.686276%,99.607843%,42.352942%);fill-opacity:1;" d="M 10.910156 4.101562 C 10.929688 4.101562 10.929688 4.101562 10.953125 4.101562 C 10.996094 4.101562 11.042969 4.101562 11.085938 4.101562 C 11.121094 4.101562 11.152344 4.101562 11.183594 4.101562 C 11.273438 4.101562 11.359375 4.101562 11.449219 4.101562 C 11.523438 4.101562 11.59375 4.101562 11.667969 4.101562 C 11.839844 4.101562 12.015625 4.101562 12.1875 4.101562 C 12.367188 4.101562 12.542969 4.101562 12.722656 4.101562 C 12.875 4.097656 13.03125 4.097656 13.183594 4.097656 C 13.273438 4.097656 13.367188 4.097656 13.457031 4.097656 C 13.542969 4.097656 13.628906 4.097656 13.714844 4.097656 C 13.746094 4.097656 13.78125 4.097656 13.8125 4.097656 C 13.855469 4.097656 13.898438 4.097656 13.941406 4.097656 C 13.976562 4.097656 13.976562 4.097656 14.015625 4.097656 C 14.074219 4.109375 14.074219 4.109375 14.117188 4.15625 C 14.179688 4.257812 14.144531 4.378906 14.121094 4.492188 C 14.117188 4.507812 14.113281 4.523438 14.109375 4.539062 C 14.050781 4.800781 13.960938 5.054688 13.851562 5.296875 C 13.847656 5.308594 13.839844 5.320312 13.835938 5.332031 C 13.785156 5.449219 13.730469 5.558594 13.671875 5.671875 C 13.660156 5.691406 13.652344 5.707031 13.640625 5.726562 C 13.578125 5.847656 13.511719 5.96875 13.4375 6.082031 C 13.414062 6.121094 13.390625 6.160156 13.367188 6.199219 C 13.332031 6.261719 13.292969 6.3125 13.25 6.367188 C 13.21875 6.410156 13.21875 6.410156 13.195312 6.460938 C 13.167969 6.515625 13.140625 6.558594 13.105469 6.605469 C 13.089844 6.625 13.078125 6.640625 13.066406 6.660156 C 13.058594 6.667969 13.050781 6.679688 13.042969 6.6875 C 12.980469 6.773438 12.921875 6.855469 12.863281 6.9375 C 12.8125 7.011719 12.757812 7.082031 12.703125 7.148438 C 12.6875 7.167969 12.671875 7.1875 12.65625 7.207031 C 12.648438 7.21875 12.640625 7.226562 12.632812 7.238281 C 12.625 7.25 12.617188 7.261719 12.605469 7.273438 C 12.542969 7.351562 12.480469 7.433594 12.417969 7.511719 C 12.40625 7.527344 12.394531 7.542969 12.382812 7.554688 C 12.355469 7.589844 12.328125 7.617188 12.296875 7.648438 C 12.238281 7.710938 12.179688 7.777344 12.128906 7.847656 C 12.085938 7.894531 12.042969 7.9375 12 7.980469 C 11.980469 8.003906 11.957031 8.023438 11.9375 8.042969 C 11.875 8.109375 11.8125 8.171875 11.75 8.234375 C 11.722656 8.261719 11.695312 8.289062 11.667969 8.316406 C 11.628906 8.355469 11.589844 8.394531 11.550781 8.433594 C 11.539062 8.445312 11.527344 8.457031 11.515625 8.46875 C 11.503906 8.480469 11.492188 8.492188 11.480469 8.503906 C 11.472656 8.515625 11.460938 8.523438 11.453125 8.535156 C 11.425781 8.554688 11.425781 8.554688 11.390625 8.554688 C 11.390625 8.566406 11.390625 8.578125 11.390625 8.59375 C 11.359375 8.617188 11.332031 8.640625 11.300781 8.664062 C 11.246094 8.707031 11.195312 8.746094 11.148438 8.796875 C 11.046875 8.890625 11.046875 8.890625 11 8.890625 C 11 8.902344 11 8.914062 11 8.925781 C 10.980469 8.9375 10.964844 8.949219 10.945312 8.960938 C 10.882812 8.996094 10.882812 8.996094 10.871094 9.054688 C 11.308594 9.015625 11.742188 8.96875 12.160156 8.8125 C 12.199219 8.796875 12.242188 8.785156 12.285156 8.769531 C 12.546875 8.683594 12.808594 8.574219 13.054688 8.445312 C 13.164062 8.390625 13.164062 8.390625 13.203125 8.390625 C 13.203125 8.375 13.203125 8.363281 13.203125 8.351562 C 13.230469 8.335938 13.257812 8.320312 13.285156 8.304688 C 13.300781 8.296875 13.316406 8.289062 13.332031 8.28125 C 13.371094 8.257812 13.371094 8.257812 13.40625 8.257812 C 13.40625 8.246094 13.40625 8.234375 13.40625 8.222656 C 13.4375 8.214844 13.46875 8.210938 13.5 8.203125 C 13.5 8.191406 13.5 8.179688 13.5 8.167969 C 13.585938 8.117188 13.644531 8.101562 13.742188 8.109375 C 13.757812 8.125 13.777344 8.136719 13.796875 8.148438 C 13.804688 8.199219 13.804688 8.199219 13.804688 8.265625 C 13.804688 8.289062 13.804688 8.3125 13.804688 8.339844 C 13.804688 8.367188 13.804688 8.390625 13.804688 8.417969 C 13.804688 8.433594 13.804688 8.445312 13.804688 8.460938 C 13.800781 8.683594 13.785156 8.90625 13.75 9.128906 C 13.738281 9.191406 13.730469 9.253906 13.722656 9.316406 C 13.714844 9.359375 13.710938 9.40625 13.703125 9.449219 C 13.699219 9.46875 13.699219 9.492188 13.695312 9.511719 C 13.679688 9.625 13.65625 9.734375 13.625 9.84375 C 13.609375 9.890625 13.601562 9.933594 13.597656 9.980469 C 13.570312 10.140625 13.515625 10.292969 13.464844 10.445312 C 13.457031 10.457031 13.453125 10.46875 13.449219 10.480469 C 13.359375 10.746094 13.238281 10.921875 12.984375 11.046875 C 12.941406 11.070312 12.894531 11.089844 12.851562 11.109375 C 12.820312 11.128906 12.785156 11.144531 12.753906 11.160156 C 12.289062 11.394531 11.769531 11.546875 11.257812 11.648438 C 11.238281 11.652344 11.21875 11.65625 11.199219 11.660156 C 11.019531 11.703125 10.835938 11.730469 10.652344 11.75 C 10.609375 11.757812 10.570312 11.761719 10.527344 11.769531 C 10.234375 11.808594 9.941406 11.804688 9.648438 11.804688 C 9.632812 11.804688 9.617188 11.804688 9.605469 11.804688 C 9.003906 11.804688 8.421875 11.765625 7.839844 11.621094 C 7.773438 11.605469 7.707031 11.59375 7.640625 11.582031 C 7.207031 11.503906 6.773438 11.355469 6.371094 11.183594 C 6.351562 11.175781 6.332031 11.167969 6.3125 11.160156 C 6.25 11.136719 6.1875 11.109375 6.125 11.082031 C 6.105469 11.074219 6.085938 11.066406 6.066406 11.054688 C 6.046875 11.046875 6.027344 11.039062 6.007812 11.03125 C 5.988281 11.023438 5.972656 11.015625 5.953125 11.007812 C 5.898438 10.976562 5.867188 10.941406 5.832031 10.890625 C 5.832031 10.824219 5.832031 10.78125 5.875 10.730469 C 5.949219 10.667969 5.949219 10.667969 6 10.667969 C 6 10.65625 6 10.640625 6 10.628906 C 6.035156 10.617188 6.074219 10.605469 6.109375 10.59375 C 6.109375 10.582031 6.109375 10.566406 6.109375 10.554688 C 6.148438 10.527344 6.1875 10.5 6.222656 10.476562 C 6.296875 10.425781 6.367188 10.378906 6.433594 10.320312 C 6.507812 10.257812 6.589844 10.199219 6.667969 10.140625 C 6.679688 10.132812 6.695312 10.121094 6.707031 10.109375 C 6.71875 10.101562 6.730469 10.09375 6.746094 10.082031 C 6.777344 10.054688 6.777344 10.054688 6.804688 10.027344 C 6.832031 10 6.832031 10 6.890625 9.980469 C 6.898438 9.96875 6.90625 9.957031 6.917969 9.941406 C 6.925781 9.929688 6.933594 9.917969 6.945312 9.90625 C 6.960938 9.90625 6.980469 9.90625 7 9.90625 C 7.007812 9.890625 7.011719 9.871094 7.019531 9.851562 C 7.046875 9.824219 7.082031 9.796875 7.113281 9.773438 C 7.191406 9.710938 7.265625 9.644531 7.339844 9.578125 C 7.371094 9.554688 7.371094 9.554688 7.40625 9.554688 C 7.414062 9.539062 7.417969 9.519531 7.425781 9.5 C 7.460938 9.472656 7.460938 9.472656 7.503906 9.441406 C 7.578125 9.386719 7.636719 9.324219 7.691406 9.25 C 7.726562 9.21875 7.75 9.214844 7.796875 9.203125 C 7.808594 9.179688 7.820312 9.15625 7.832031 9.128906 C 7.859375 9.117188 7.882812 9.105469 7.90625 9.09375 C 7.921875 9.066406 7.933594 9.042969 7.945312 9.019531 C 7.960938 9.011719 7.980469 9.007812 8 9 C 8.007812 8.988281 8.011719 8.976562 8.019531 8.964844 C 8.035156 8.925781 8.035156 8.925781 8.09375 8.90625 C 8.097656 8.894531 8.105469 8.882812 8.109375 8.871094 C 8.132812 8.824219 8.15625 8.820312 8.203125 8.796875 C 8.214844 8.773438 8.230469 8.746094 8.242188 8.722656 C 8.296875 8.648438 8.359375 8.585938 8.425781 8.519531 C 8.441406 8.5 8.457031 8.480469 8.472656 8.464844 C 8.515625 8.410156 8.5625 8.363281 8.609375 8.316406 C 8.726562 8.191406 8.726562 8.191406 8.832031 8.054688 C 8.84375 8.035156 8.855469 8.019531 8.871094 8 C 8.882812 8 8.894531 8 8.90625 8 C 8.910156 7.980469 8.910156 7.980469 8.914062 7.964844 C 8.917969 7.953125 8.921875 7.9375 8.925781 7.925781 C 8.945312 7.917969 8.960938 7.914062 8.980469 7.90625 C 8.992188 7.875 9.007812 7.847656 9.019531 7.816406 C 9.042969 7.78125 9.070312 7.746094 9.097656 7.714844 C 9.171875 7.628906 9.234375 7.542969 9.289062 7.445312 C 9.296875 7.433594 9.304688 7.421875 9.316406 7.40625 C 9.328125 7.40625 9.339844 7.40625 9.351562 7.40625 C 9.359375 7.394531 9.359375 7.394531 9.367188 7.378906 C 9.394531 7.320312 9.429688 7.261719 9.464844 7.203125 C 9.476562 7.203125 9.488281 7.203125 9.5 7.203125 C 9.507812 7.171875 9.511719 7.144531 9.519531 7.109375 C 9.53125 7.109375 9.542969 7.109375 9.554688 7.109375 C 9.558594 7.097656 9.566406 7.085938 9.570312 7.070312 C 9.589844 7.023438 9.613281 6.984375 9.644531 6.941406 C 9.699219 6.859375 9.746094 6.773438 9.796875 6.683594 C 9.804688 6.671875 9.8125 6.660156 9.820312 6.648438 C 9.863281 6.570312 9.90625 6.488281 9.945312 6.40625 C 9.957031 6.40625 9.96875 6.40625 9.980469 6.40625 C 9.988281 6.386719 9.992188 6.363281 10 6.339844 C 10.03125 6.242188 10.082031 6.15625 10.132812 6.0625 C 10.175781 5.980469 10.210938 5.902344 10.242188 5.816406 C 10.253906 5.785156 10.269531 5.753906 10.28125 5.722656 C 10.449219 5.363281 10.5625 4.984375 10.644531 4.597656 C 10.648438 4.578125 10.652344 4.558594 10.65625 4.542969 C 10.679688 4.4375 10.691406 4.335938 10.695312 4.230469 C 10.71875 4.113281 10.804688 4.101562 10.910156 4.101562 Z M 10.910156 4.101562 "/>
<path style=" stroke:none;fill-rule:nonzero;fill:rgb(75.686276%,99.607843%,42.352942%);fill-opacity:1;" d="M 13.183594 11.777344 C 13.222656 11.816406 13.207031 11.894531 13.207031 11.949219 C 13.207031 11.964844 13.207031 11.980469 13.207031 11.996094 C 13.207031 12.027344 13.207031 12.0625 13.207031 12.09375 C 13.207031 12.144531 13.207031 12.195312 13.207031 12.242188 C 13.207031 12.546875 13.179688 12.839844 13.125 13.136719 C 13.113281 13.207031 13.105469 13.277344 13.09375 13.347656 C 13.074219 13.476562 13.050781 13.605469 13.023438 13.730469 C 13.019531 13.753906 13.011719 13.777344 13.007812 13.796875 C 12.902344 14.289062 12.902344 14.289062 12.816406 14.5 C 12.808594 14.527344 12.800781 14.554688 12.796875 14.582031 C 12.785156 14.644531 12.765625 14.699219 12.738281 14.757812 C 12.71875 14.808594 12.703125 14.859375 12.6875 14.910156 C 12.648438 15.035156 12.605469 15.15625 12.554688 15.277344 C 12.546875 15.296875 12.542969 15.3125 12.535156 15.332031 C 12.484375 15.453125 12.429688 15.566406 12.367188 15.683594 C 12.332031 15.742188 12.300781 15.804688 12.277344 15.871094 C 12.253906 15.871094 12.230469 15.871094 12.203125 15.871094 C 12.199219 15.84375 12.199219 15.84375 12.191406 15.820312 C 12.144531 15.640625 12.085938 15.46875 12.019531 15.296875 C 12.011719 15.277344 12.003906 15.257812 11.996094 15.242188 C 11.898438 15 11.789062 14.757812 11.648438 14.535156 C 11.625 14.496094 11.597656 14.457031 11.574219 14.414062 C 11.519531 14.328125 11.464844 14.246094 11.40625 14.160156 C 11.390625 14.128906 11.390625 14.128906 11.390625 14.09375 C 11.375 14.09375 11.363281 14.09375 11.351562 14.09375 C 11.320312 14.050781 11.289062 14.007812 11.257812 13.964844 C 11.25 13.953125 11.238281 13.941406 11.230469 13.929688 C 11.167969 13.839844 11.167969 13.839844 11.167969 13.796875 C 11.140625 13.789062 11.140625 13.789062 11.109375 13.777344 C 11.105469 13.761719 11.105469 13.761719 11.101562 13.742188 C 11.097656 13.722656 11.097656 13.722656 11.09375 13.703125 C 11.082031 13.699219 11.066406 13.691406 11.054688 13.683594 C 11.042969 13.679688 11.03125 13.671875 11.019531 13.667969 C 11.011719 13.640625 11.007812 13.617188 11 13.59375 C 10.988281 13.585938 10.976562 13.582031 10.96875 13.578125 C 10.914062 13.546875 10.886719 13.511719 10.847656 13.460938 C 10.78125 13.378906 10.714844 13.308594 10.644531 13.234375 C 10.609375 13.203125 10.609375 13.203125 10.574219 13.15625 C 10.53125 13.105469 10.488281 13.066406 10.4375 13.027344 C 10.382812 12.976562 10.328125 12.921875 10.277344 12.867188 C 10.199219 12.789062 10.121094 12.714844 10.027344 12.652344 C 10.011719 12.640625 10.011719 12.640625 10 12.628906 C 10 12.617188 10 12.605469 10 12.59375 C 9.984375 12.585938 9.984375 12.585938 9.96875 12.578125 C 9.910156 12.546875 9.863281 12.503906 9.8125 12.460938 C 9.71875 12.378906 9.621094 12.304688 9.515625 12.234375 C 9.503906 12.222656 9.492188 12.214844 9.480469 12.203125 C 9.480469 12.183594 9.480469 12.167969 9.480469 12.148438 C 9.578125 12.175781 9.664062 12.210938 9.75 12.257812 C 10.054688 12.402344 10.394531 12.480469 10.734375 12.488281 C 10.882812 12.492188 10.882812 12.492188 10.945312 12.546875 C 10.972656 12.578125 10.972656 12.578125 11 12.609375 C 11.019531 12.632812 11.042969 12.660156 11.0625 12.683594 C 11.074219 12.695312 11.082031 12.707031 11.09375 12.71875 C 11.132812 12.761719 11.171875 12.800781 11.210938 12.839844 C 11.425781 13.054688 11.609375 13.3125 11.78125 13.5625 C 11.808594 13.601562 11.835938 13.636719 11.859375 13.675781 C 11.871094 13.6875 11.878906 13.699219 11.886719 13.710938 C 11.902344 13.730469 11.917969 13.753906 11.933594 13.777344 C 12.011719 13.882812 12.074219 13.984375 12.109375 14.109375 C 12.125 14.109375 12.136719 14.109375 12.148438 14.109375 C 12.175781 14.148438 12.199219 14.183594 12.222656 14.222656 C 12.289062 14.171875 12.304688 14.097656 12.332031 14.019531 C 12.339844 14 12.339844 14 12.34375 13.976562 C 12.496094 13.496094 12.609375 12.949219 12.59375 12.445312 C 12.578125 12.449219 12.566406 12.453125 12.550781 12.457031 C 12.417969 12.488281 12.292969 12.507812 12.15625 12.511719 C 12.09375 12.515625 12.039062 12.519531 11.980469 12.535156 C 12 12.566406 12.019531 12.597656 12.035156 12.628906 C 12.015625 12.648438 11.996094 12.671875 11.976562 12.691406 C 11.953125 12.714844 11.929688 12.738281 11.90625 12.765625 C 11.890625 12.777344 11.875 12.792969 11.859375 12.808594 C 11.847656 12.824219 11.835938 12.835938 11.820312 12.851562 C 11.777344 12.890625 11.738281 12.90625 11.683594 12.925781 C 11.65625 12.894531 11.625 12.863281 11.59375 12.832031 C 11.574219 12.816406 11.558594 12.800781 11.539062 12.785156 C 11.5 12.742188 11.5 12.742188 11.5 12.703125 C 11.488281 12.699219 11.480469 12.695312 11.46875 12.691406 C 11.414062 12.660156 11.375 12.621094 11.332031 12.574219 C 11.328125 12.566406 11.320312 12.5625 11.316406 12.554688 C 11.308594 12.488281 11.3125 12.46875 11.351562 12.40625 C 11.363281 12.40625 11.375 12.40625 11.390625 12.40625 C 11.394531 12.394531 11.398438 12.378906 11.402344 12.367188 C 11.445312 12.273438 11.496094 12.171875 11.597656 12.132812 C 11.652344 12.121094 11.703125 12.117188 11.757812 12.109375 C 11.820312 12.101562 11.882812 12.09375 11.941406 12.085938 C 11.960938 12.082031 11.976562 12.078125 11.992188 12.078125 C 12.097656 12.0625 12.203125 12.039062 12.304688 12.011719 C 12.347656 12 12.394531 11.992188 12.4375 11.980469 C 12.507812 11.964844 12.574219 11.945312 12.640625 11.921875 C 12.675781 11.910156 12.710938 11.898438 12.746094 11.890625 C 12.792969 11.875 12.839844 11.863281 12.886719 11.847656 C 12.898438 11.84375 12.910156 11.839844 12.921875 11.835938 C 12.945312 11.824219 12.96875 11.816406 12.992188 11.808594 C 13.058594 11.785156 13.113281 11.769531 13.183594 11.777344 Z M 13.183594 11.777344 "/>
<path style=" stroke:none;fill-rule:nonzero;fill:rgb(79.215688%,99.215686%,43.137255%);fill-opacity:1;" d="M 6.207031 9.191406 C 6.28125 9.203125 6.308594 9.214844 6.359375 9.265625 C 6.417969 9.351562 6.433594 9.433594 6.425781 9.535156 C 6.410156 9.605469 6.390625 9.652344 6.328125 9.691406 C 6.320312 9.695312 6.308594 9.699219 6.296875 9.703125 C 6.296875 9.714844 6.296875 9.726562 6.296875 9.742188 C 6.207031 9.792969 6.117188 9.792969 6.019531 9.777344 C 5.964844 9.75 5.929688 9.714844 5.890625 9.667969 C 5.878906 9.652344 5.863281 9.640625 5.851562 9.625 C 5.824219 9.546875 5.820312 9.472656 5.832031 9.390625 C 5.867188 9.328125 5.867188 9.328125 5.90625 9.277344 C 5.917969 9.265625 5.925781 9.25 5.9375 9.238281 C 6.015625 9.175781 6.109375 9.1875 6.207031 9.191406 Z M 6 9.316406 C 6.007812 9.328125 6.011719 9.339844 6.019531 9.351562 C 6.023438 9.339844 6.03125 9.328125 6.035156 9.316406 C 6.023438 9.316406 6.011719 9.316406 6 9.316406 Z M 5.980469 9.351562 C 5.933594 9.398438 5.929688 9.433594 5.925781 9.5 C 5.945312 9.527344 5.945312 9.527344 5.964844 9.554688 C 5.964844 9.53125 5.96875 9.507812 5.972656 9.484375 C 5.972656 9.472656 5.976562 9.457031 5.976562 9.445312 C 5.984375 9.40625 5.984375 9.40625 5.980469 9.351562 Z M 6.054688 9.445312 C 6.0625 9.503906 6.0625 9.503906 6.09375 9.554688 C 6.136719 9.558594 6.136719 9.558594 6.183594 9.554688 C 6.199219 9.542969 6.210938 9.53125 6.222656 9.519531 C 6.261719 9.507812 6.261719 9.507812 6.296875 9.5 C 6.300781 9.511719 6.308594 9.523438 6.316406 9.535156 C 6.316406 9.5 6.316406 9.464844 6.316406 9.425781 C 6.308594 9.4375 6.300781 9.449219 6.296875 9.464844 C 6.207031 9.429688 6.207031 9.429688 6.183594 9.40625 C 6.113281 9.398438 6.113281 9.398438 6.054688 9.445312 Z M 5.964844 9.554688 C 5.980469 9.59375 5.980469 9.59375 5.980469 9.59375 Z M 6.09375 9.667969 C 6.09375 9.671875 6.09375 9.679688 6.09375 9.683594 C 6.125 9.683594 6.152344 9.683594 6.183594 9.683594 C 6.183594 9.679688 6.183594 9.671875 6.183594 9.667969 C 6.15625 9.667969 6.125 9.667969 6.09375 9.667969 Z M 6.09375 9.667969 "/>
<path style=" stroke:none;fill-rule:nonzero;fill:rgb(84.313726%,99.607843%,45.09804%);fill-opacity:1;" d="M 8.648438 8.277344 C 8.667969 8.285156 8.667969 8.285156 8.683594 8.296875 C 8.59375 8.402344 8.5 8.507812 8.40625 8.609375 C 8.371094 8.644531 8.339844 8.679688 8.304688 8.71875 C 8.195312 8.839844 8.082031 8.957031 7.96875 9.070312 C 7.953125 9.085938 7.9375 9.101562 7.925781 9.117188 C 7.835938 9.203125 7.742188 9.289062 7.648438 9.371094 C 7.539062 9.464844 7.539062 9.464844 7.433594 9.566406 C 7.390625 9.609375 7.347656 9.648438 7.300781 9.691406 C 7.289062 9.703125 7.273438 9.71875 7.257812 9.730469 C 7.222656 9.757812 7.222656 9.757812 7.183594 9.757812 C 7.183594 9.769531 7.183594 9.785156 7.183594 9.796875 C 7.152344 9.828125 7.152344 9.828125 7.105469 9.863281 C 7.085938 9.875 7.070312 9.890625 7.054688 9.902344 C 7.027344 9.921875 7.027344 9.921875 7 9.945312 C 6.96875 9.96875 6.933594 9.996094 6.902344 10.023438 C 6.886719 10.035156 6.871094 10.046875 6.855469 10.058594 C 6.820312 10.089844 6.785156 10.117188 6.75 10.148438 C 6.703125 10.183594 6.703125 10.183594 6.667969 10.183594 C 6.691406 10.128906 6.71875 10.09375 6.765625 10.050781 C 6.777344 10.042969 6.789062 10.035156 6.800781 10.023438 C 6.832031 10 6.832031 10 6.890625 9.980469 C 6.898438 9.96875 6.90625 9.957031 6.917969 9.941406 C 6.925781 9.929688 6.933594 9.917969 6.945312 9.90625 C 6.960938 9.90625 6.980469 9.90625 7 9.90625 C 7.007812 9.878906 7.007812 9.878906 7.019531 9.851562 C 7.046875 9.824219 7.082031 9.796875 7.113281 9.773438 C 7.191406 9.710938 7.265625 9.644531 7.339844 9.578125 C 7.371094 9.554688 7.371094 9.554688 7.40625 9.554688 C 7.417969 9.527344 7.417969 9.527344 7.425781 9.5 C 7.460938 9.472656 7.460938 9.472656 7.503906 9.441406 C 7.578125 9.386719 7.636719 9.324219 7.691406 9.25 C 7.726562 9.21875 7.75 9.214844 7.796875 9.203125 C 7.808594 9.179688 7.820312 9.15625 7.832031 9.128906 C 7.859375 9.117188 7.882812 9.105469 7.90625 9.09375 C 7.921875 9.066406 7.933594 9.042969 7.945312 9.019531 C 7.960938 9.011719 7.980469 9.007812 8 9 C 8.007812 8.980469 8.007812 8.980469 8.019531 8.964844 C 8.035156 8.925781 8.035156 8.925781 8.09375 8.90625 C 8.101562 8.890625 8.101562 8.890625 8.109375 8.871094 C 8.132812 8.824219 8.15625 8.820312 8.203125 8.796875 C 8.214844 8.773438 8.230469 8.746094 8.242188 8.722656 C 8.296875 8.648438 8.359375 8.585938 8.425781 8.519531 C 8.449219 8.492188 8.449219 8.492188 8.472656 8.464844 C 8.515625 8.410156 8.5625 8.363281 8.609375 8.316406 C 8.625 8.300781 8.636719 8.289062 8.648438 8.277344 Z M 8.648438 8.277344 "/>
<path style=" stroke:none;fill-rule:nonzero;fill:rgb(84.705883%,99.607843%,45.490196%);fill-opacity:1;" d="M 13.054688 6.59375 C 13.066406 6.621094 13.066406 6.621094 13.074219 6.648438 C 13.054688 6.683594 13.054688 6.683594 13.027344 6.722656 C 13.015625 6.738281 13.003906 6.75 12.992188 6.765625 C 12.984375 6.78125 12.972656 6.796875 12.960938 6.8125 C 12.9375 6.839844 12.914062 6.871094 12.894531 6.898438 C 12.882812 6.914062 12.871094 6.925781 12.863281 6.941406 C 12.835938 6.976562 12.8125 7.007812 12.792969 7.042969 C 12.765625 7.085938 12.738281 7.113281 12.703125 7.148438 C 12.671875 7.1875 12.640625 7.230469 12.609375 7.269531 C 12.589844 7.292969 12.570312 7.316406 12.554688 7.339844 C 12.542969 7.351562 12.535156 7.363281 12.527344 7.375 C 12.488281 7.421875 12.453125 7.464844 12.417969 7.511719 C 12.40625 7.527344 12.394531 7.542969 12.382812 7.554688 C 12.355469 7.589844 12.328125 7.617188 12.296875 7.648438 C 12.238281 7.710938 12.179688 7.777344 12.128906 7.847656 C 12.085938 7.894531 12.042969 7.9375 12 7.980469 C 11.980469 8.003906 11.957031 8.023438 11.9375 8.042969 C 11.875 8.109375 11.8125 8.171875 11.75 8.234375 C 11.722656 8.261719 11.695312 8.289062 11.667969 8.316406 C 11.628906 8.355469 11.589844 8.394531 11.550781 8.433594 C 11.539062 8.445312 11.527344 8.457031 11.515625 8.46875 C 11.5 8.488281 11.5 8.488281 11.480469 8.503906 C 11.464844 8.519531 11.464844 8.519531 11.453125 8.535156 C 11.425781 8.554688 11.425781 8.554688 11.390625 8.554688 C 11.390625 8.566406 11.390625 8.578125 11.390625 8.59375 C 11.335938 8.640625 11.335938 8.640625 11.277344 8.683594 C 11.257812 8.679688 11.242188 8.671875 11.222656 8.667969 C 11.246094 8.644531 11.265625 8.625 11.289062 8.605469 C 11.308594 8.585938 11.328125 8.566406 11.351562 8.550781 C 11.402344 8.503906 11.453125 8.457031 11.503906 8.410156 C 11.652344 8.273438 11.800781 8.132812 11.933594 7.980469 C 11.960938 7.945312 11.992188 7.914062 12.027344 7.882812 C 12.09375 7.816406 12.152344 7.742188 12.210938 7.667969 C 12.253906 7.617188 12.300781 7.566406 12.34375 7.515625 C 12.570312 7.257812 12.769531 6.980469 12.972656 6.703125 C 13 6.664062 13.027344 6.628906 13.054688 6.59375 Z M 13.054688 6.59375 "/>
<path style=" stroke:none;fill-rule:nonzero;fill:rgb(84.705883%,99.607843%,45.882353%);fill-opacity:1;" d="M 12.371094 11.277344 C 12.371094 11.289062 12.371094 11.300781 12.371094 11.316406 C 12.027344 11.445312 11.683594 11.5625 11.320312 11.636719 C 11.28125 11.644531 11.238281 11.652344 11.199219 11.660156 C 10.804688 11.753906 10.351562 11.835938 9.945312 11.777344 C 9.945312 11.773438 9.945312 11.765625 9.945312 11.757812 C 9.960938 11.757812 9.980469 11.757812 9.996094 11.753906 C 10.738281 11.695312 11.445312 11.578125 12.152344 11.339844 C 12.167969 11.332031 12.167969 11.332031 12.1875 11.328125 C 12.21875 11.316406 12.25 11.304688 12.285156 11.292969 C 12.332031 11.277344 12.332031 11.277344 12.371094 11.277344 Z M 12.371094 11.277344 "/>
<path style=" stroke:none;fill-rule:nonzero;fill:rgb(83.92157%,99.607843%,45.09804%);fill-opacity:1;" d="M 12.203125 12.035156 C 12.210938 12.066406 12.210938 12.066406 12.222656 12.09375 C 12.179688 12.101562 12.132812 12.109375 12.089844 12.117188 C 12.050781 12.125 12.015625 12.132812 11.976562 12.136719 C 11.878906 12.15625 11.78125 12.167969 11.683594 12.171875 C 11.585938 12.1875 11.542969 12.226562 11.484375 12.300781 C 11.398438 12.402344 11.398438 12.402344 11.375 12.527344 C 11.421875 12.59375 11.480469 12.652344 11.539062 12.707031 C 11.5625 12.730469 11.585938 12.753906 11.609375 12.777344 C 11.621094 12.785156 11.628906 12.796875 11.640625 12.808594 C 11.667969 12.832031 11.667969 12.832031 11.683594 12.871094 C 11.761719 12.839844 11.816406 12.785156 11.875 12.730469 C 11.886719 12.71875 11.894531 12.710938 11.90625 12.699219 C 11.929688 12.675781 11.957031 12.652344 11.980469 12.628906 C 11.972656 12.601562 11.972656 12.601562 11.964844 12.574219 C 11.976562 12.566406 11.988281 12.5625 12 12.554688 C 12.011719 12.578125 12.023438 12.605469 12.035156 12.628906 C 12.015625 12.648438 11.996094 12.671875 11.976562 12.691406 C 11.953125 12.714844 11.929688 12.738281 11.90625 12.765625 C 11.890625 12.777344 11.875 12.792969 11.859375 12.808594 C 11.847656 12.824219 11.835938 12.835938 11.820312 12.851562 C 11.777344 12.890625 11.738281 12.90625 11.683594 12.925781 C 11.65625 12.894531 11.625 12.863281 11.59375 12.832031 C 11.574219 12.816406 11.558594 12.800781 11.539062 12.785156 C 11.5 12.742188 11.5 12.742188 11.5 12.703125 C 11.488281 12.699219 11.480469 12.695312 11.46875 12.691406 C 11.414062 12.660156 11.375 12.621094 11.332031 12.574219 C 11.328125 12.566406 11.320312 12.5625 11.316406 12.554688 C 11.308594 12.488281 11.3125 12.46875 11.351562 12.40625 C 11.363281 12.40625 11.375 12.40625 11.390625 12.40625 C 11.394531 12.386719 11.394531 12.386719 11.402344 12.367188 C 11.445312 12.273438 11.496094 12.171875 11.597656 12.132812 C 11.652344 12.121094 11.703125 12.117188 11.757812 12.109375 C 11.808594 12.105469 11.855469 12.097656 11.902344 12.089844 C 11.933594 12.085938 11.96875 12.078125 12 12.074219 C 12.023438 12.070312 12.023438 12.070312 12.046875 12.066406 C 12.0625 12.066406 12.078125 12.0625 12.089844 12.0625 C 12.128906 12.054688 12.167969 12.046875 12.203125 12.035156 Z M 12.203125 12.035156 "/>
<path style=" stroke:none;fill-rule:nonzero;fill:rgb(82.745099%,99.607843%,45.490196%);fill-opacity:1;" d="M 6.132812 9.195312 C 6.152344 9.195312 6.152344 9.195312 6.171875 9.195312 C 6.210938 9.195312 6.210938 9.195312 6.277344 9.203125 C 6.289062 9.222656 6.300781 9.242188 6.316406 9.257812 C 6.296875 9.269531 6.296875 9.269531 6.277344 9.277344 C 6.261719 9.273438 6.246094 9.265625 6.230469 9.257812 C 6.152344 9.238281 6.09375 9.238281 6.019531 9.257812 C 5.972656 9.285156 5.933594 9.316406 5.890625 9.351562 C 5.894531 9.304688 5.910156 9.277344 5.9375 9.238281 C 6 9.191406 6.058594 9.195312 6.132812 9.195312 Z M 6.167969 9.242188 C 6.140625 9.246094 6.117188 9.253906 6.09375 9.257812 C 6.09375 9.269531 6.09375 9.285156 6.09375 9.296875 C 6.125 9.296875 6.152344 9.296875 6.183594 9.296875 C 6.183594 9.285156 6.183594 9.273438 6.183594 9.257812 C 6.230469 9.277344 6.230469 9.277344 6.277344 9.296875 C 6.273438 9.316406 6.265625 9.332031 6.257812 9.351562 C 6.277344 9.347656 6.296875 9.339844 6.316406 9.332031 C 6.320312 9.351562 6.328125 9.371094 6.332031 9.390625 C 6.316406 9.390625 6.296875 9.390625 6.277344 9.390625 C 6.285156 9.414062 6.289062 9.4375 6.296875 9.464844 C 6.207031 9.445312 6.207031 9.445312 6.183594 9.425781 C 6.15625 9.425781 6.125 9.425781 6.09375 9.425781 C 6.085938 9.457031 6.078125 9.488281 6.074219 9.519531 C 6.09375 9.542969 6.09375 9.542969 6.136719 9.539062 C 6.1875 9.542969 6.1875 9.542969 6.222656 9.5 C 6.261719 9.507812 6.261719 9.507812 6.296875 9.519531 C 6.296875 9.535156 6.296875 9.554688 6.296875 9.574219 C 6.210938 9.59375 6.117188 9.617188 6.039062 9.570312 C 6.007812 9.519531 6.011719 9.484375 6.019531 9.425781 C 6.039062 9.390625 6.039062 9.390625 6.074219 9.371094 C 6.132812 9.367188 6.132812 9.367188 6.183594 9.371094 C 6.191406 9.371094 6.199219 9.371094 6.203125 9.371094 C 6.128906 9.367188 6.128906 9.367188 6.054688 9.371094 C 6.011719 9.40625 6.011719 9.40625 6.011719 9.480469 C 6.011719 9.539062 6.015625 9.550781 6.054688 9.601562 C 6.066406 9.609375 6.078125 9.621094 6.09375 9.628906 C 6.046875 9.625 6.046875 9.625 6 9.609375 C 5.953125 9.542969 5.949219 9.488281 5.964844 9.40625 C 5.996094 9.351562 5.996094 9.351562 6.035156 9.316406 C 6.050781 9.316406 6.0625 9.316406 6.074219 9.316406 C 6.074219 9.300781 6.074219 9.289062 6.074219 9.277344 C 6.0625 9.273438 6.050781 9.265625 6.035156 9.257812 C 6.082031 9.238281 6.117188 9.238281 6.167969 9.242188 Z M 6.167969 9.242188 "/>
<path style=" stroke:none;fill-rule:nonzero;fill:rgb(84.313726%,99.607843%,45.490196%);fill-opacity:1;" d="M 6.296875 11.109375 C 6.359375 11.121094 6.417969 11.140625 6.476562 11.164062 C 6.503906 11.171875 6.503906 11.171875 6.53125 11.183594 C 6.550781 11.191406 6.566406 11.199219 6.585938 11.203125 C 7.019531 11.367188 7.460938 11.484375 7.90625 11.59375 C 7.90625 11.597656 7.90625 11.605469 7.90625 11.609375 C 7.753906 11.605469 7.617188 11.589844 7.46875 11.539062 C 7.402344 11.515625 7.332031 11.5 7.261719 11.484375 C 7.109375 11.445312 6.964844 11.398438 6.816406 11.351562 C 6.800781 11.347656 6.785156 11.34375 6.769531 11.335938 C 6.609375 11.285156 6.445312 11.226562 6.296875 11.148438 C 6.296875 11.136719 6.296875 11.125 6.296875 11.109375 Z M 6.296875 11.109375 "/>
<path style=" stroke:none;fill-rule:nonzero;fill:rgb(84.313726%,99.607843%,45.882353%);fill-opacity:1;" d="M 12.609375 8.703125 C 12.132812 8.910156 11.546875 9.101562 11.019531 9.09375 C 11 9.09375 10.984375 9.09375 10.964844 9.09375 C 10.953125 9.09375 10.9375 9.09375 10.925781 9.09375 C 10.925781 9.085938 10.925781 9.082031 10.925781 9.074219 C 11.070312 9.046875 11.214844 9.019531 11.363281 9 C 11.652344 8.960938 11.933594 8.902344 12.203125 8.796875 C 12.246094 8.78125 12.289062 8.769531 12.328125 8.753906 C 12.359375 8.746094 12.386719 8.734375 12.414062 8.722656 C 12.4375 8.714844 12.4375 8.714844 12.460938 8.707031 C 12.472656 8.703125 12.484375 8.699219 12.5 8.695312 C 12.542969 8.683594 12.570312 8.691406 12.609375 8.703125 Z M 12.609375 8.703125 "/>
<path style=" stroke:none;fill-rule:nonzero;fill:rgb(83.92157%,99.607843%,45.09804%);fill-opacity:1;" d="M 10.390625 5.480469 C 10.402344 5.480469 10.414062 5.480469 10.425781 5.480469 C 10.300781 5.976562 10 6.515625 9.703125 6.925781 C 9.699219 6.914062 9.691406 6.902344 9.683594 6.890625 C 9.703125 6.84375 9.722656 6.804688 9.746094 6.761719 C 9.75 6.75 9.753906 6.738281 9.761719 6.726562 C 9.796875 6.65625 9.839844 6.597656 9.890625 6.535156 C 9.910156 6.5 9.910156 6.5 9.921875 6.464844 C 9.929688 6.445312 9.9375 6.425781 9.945312 6.40625 C 9.957031 6.40625 9.96875 6.40625 9.980469 6.40625 C 9.988281 6.386719 9.992188 6.363281 10 6.339844 C 10.03125 6.242188 10.082031 6.15625 10.132812 6.0625 C 10.175781 5.980469 10.210938 5.902344 10.242188 5.816406 C 10.261719 5.761719 10.289062 5.710938 10.3125 5.660156 C 10.339844 5.601562 10.363281 5.542969 10.390625 5.480469 Z M 10.390625 5.480469 "/>
<path style=" stroke:none;fill-rule:nonzero;fill:rgb(83.529413%,99.607843%,44.705883%);fill-opacity:1;" d="M 11.277344 12.964844 C 11.351562 12.992188 11.390625 13.039062 11.441406 13.101562 C 11.453125 13.117188 11.453125 13.117188 11.464844 13.128906 C 11.578125 13.269531 11.679688 13.414062 11.777344 13.558594 C 11.804688 13.597656 11.832031 13.636719 11.863281 13.675781 C 11.871094 13.6875 11.878906 13.699219 11.886719 13.710938 C 11.902344 13.730469 11.917969 13.753906 11.933594 13.777344 C 12.011719 13.882812 12.074219 13.984375 12.109375 14.109375 C 12.125 14.109375 12.136719 14.109375 12.148438 14.109375 C 12.167969 14.148438 12.183594 14.183594 12.203125 14.222656 C 12.183594 14.222656 12.167969 14.222656 12.148438 14.222656 C 12.117188 14.175781 12.085938 14.132812 12.058594 14.082031 C 12.050781 14.070312 12.042969 14.058594 12.035156 14.042969 C 12.019531 14.019531 12.003906 13.992188 11.988281 13.964844 C 11.957031 13.914062 11.921875 13.863281 11.890625 13.808594 C 11.871094 13.777344 11.871094 13.777344 11.851562 13.722656 C 11.832031 13.703125 11.808594 13.679688 11.789062 13.660156 C 11.742188 13.609375 11.703125 13.550781 11.664062 13.496094 C 11.585938 13.378906 11.496094 13.265625 11.410156 13.15625 C 11.402344 13.144531 11.394531 13.132812 11.386719 13.121094 C 11.367188 13.101562 11.351562 13.078125 11.335938 13.058594 C 11.277344 12.984375 11.277344 12.984375 11.277344 12.964844 Z M 11.277344 12.964844 "/>
<path style=" stroke:none;fill-rule:nonzero;fill:rgb(83.137256%,99.607843%,43.921569%);fill-opacity:1;" d="M 11.203125 13.832031 C 11.214844 13.832031 11.226562 13.832031 11.242188 13.832031 C 11.265625 13.859375 11.265625 13.859375 11.289062 13.902344 C 11.300781 13.914062 11.308594 13.929688 11.320312 13.945312 C 11.332031 13.960938 11.339844 13.976562 11.351562 13.992188 C 11.363281 14.007812 11.375 14.023438 11.382812 14.039062 C 11.40625 14.074219 11.429688 14.105469 11.449219 14.136719 C 11.476562 14.179688 11.503906 14.21875 11.535156 14.261719 C 11.609375 14.375 11.683594 14.488281 11.753906 14.605469 C 11.769531 14.636719 11.769531 14.636719 11.789062 14.667969 C 11.816406 14.722656 11.820312 14.753906 11.816406 14.816406 C 11.789062 14.773438 11.761719 14.734375 11.738281 14.695312 C 11.730469 14.679688 11.726562 14.667969 11.71875 14.65625 C 11.710938 14.640625 11.703125 14.628906 11.691406 14.613281 C 11.617188 14.488281 11.542969 14.363281 11.460938 14.238281 C 11.429688 14.191406 11.40625 14.144531 11.390625 14.09375 C 11.375 14.09375 11.363281 14.09375 11.351562 14.09375 C 11.316406 14.050781 11.316406 14.050781 11.277344 13.996094 C 11.261719 13.976562 11.25 13.957031 11.234375 13.9375 C 11.203125 13.890625 11.203125 13.890625 11.203125 13.832031 Z M 11.203125 13.832031 "/>
<path style=" stroke:none;fill-rule:nonzero;fill:rgb(85.09804%,99.607843%,46.666667%);fill-opacity:1;" d="M 8.628906 11.722656 C 8.792969 11.71875 8.953125 11.726562 9.113281 11.738281 C 9.371094 11.757812 9.628906 11.769531 9.890625 11.777344 C 9.890625 11.785156 9.890625 11.789062 9.890625 11.796875 C 9.765625 11.796875 9.644531 11.796875 9.519531 11.796875 C 9.476562 11.796875 9.4375 11.796875 9.394531 11.800781 C 9.191406 11.800781 8.988281 11.800781 8.785156 11.78125 C 8.765625 11.777344 8.765625 11.777344 8.746094 11.777344 C 8.710938 11.773438 8.679688 11.765625 8.648438 11.757812 C 8.640625 11.746094 8.636719 11.734375 8.628906 11.722656 Z M 8.628906 11.722656 "/>
<path style=" stroke:none;fill-rule:nonzero;fill:rgb(83.92157%,99.607843%,45.09804%);fill-opacity:1;" d="M 13.554688 8.128906 C 13.578125 8.140625 13.605469 8.152344 13.628906 8.167969 C 13.609375 8.175781 13.589844 8.1875 13.566406 8.195312 C 13.503906 8.226562 13.453125 8.261719 13.398438 8.300781 C 13.296875 8.371094 13.191406 8.429688 13.085938 8.484375 C 13.066406 8.492188 13.050781 8.503906 13.03125 8.511719 C 12.941406 8.558594 12.847656 8.601562 12.757812 8.648438 C 12.742188 8.65625 12.722656 8.664062 12.707031 8.671875 C 12.695312 8.675781 12.679688 8.679688 12.667969 8.683594 C 12.65625 8.679688 12.640625 8.671875 12.628906 8.667969 C 12.660156 8.609375 12.710938 8.601562 12.769531 8.578125 C 12.890625 8.527344 13.003906 8.472656 13.117188 8.410156 C 13.167969 8.390625 13.167969 8.390625 13.203125 8.390625 C 13.203125 8.375 13.203125 8.363281 13.203125 8.351562 C 13.230469 8.335938 13.257812 8.320312 13.285156 8.304688 C 13.300781 8.296875 13.316406 8.289062 13.332031 8.28125 C 13.371094 8.257812 13.371094 8.257812 13.40625 8.257812 C 13.40625 8.246094 13.40625 8.234375 13.40625 8.222656 C 13.4375 8.214844 13.46875 8.210938 13.5 8.203125 C 13.5 8.191406 13.5 8.179688 13.5 8.167969 C 13.519531 8.15625 13.535156 8.140625 13.554688 8.128906 Z M 13.554688 8.128906 "/>
<path style=" stroke:none;fill-rule:nonzero;fill:rgb(84.313726%,99.607843%,45.09804%);fill-opacity:1;" d="M 13.628906 5.648438 C 13.648438 5.703125 13.648438 5.703125 13.636719 5.738281 C 13.628906 5.75 13.621094 5.761719 13.617188 5.773438 C 13.609375 5.789062 13.601562 5.800781 13.59375 5.816406 C 13.585938 5.828125 13.578125 5.84375 13.570312 5.859375 C 13.558594 5.878906 13.558594 5.878906 13.546875 5.898438 C 13.503906 5.980469 13.457031 6.054688 13.40625 6.128906 C 13.394531 6.148438 13.382812 6.171875 13.371094 6.191406 C 13.34375 6.242188 13.3125 6.289062 13.277344 6.335938 C 13.230469 6.394531 13.199219 6.453125 13.167969 6.519531 C 13.136719 6.554688 13.136719 6.554688 13.109375 6.574219 C 13.097656 6.566406 13.085938 6.5625 13.074219 6.554688 C 13.089844 6.53125 13.089844 6.53125 13.109375 6.503906 C 13.296875 6.226562 13.460938 5.9375 13.628906 5.648438 Z M 13.628906 5.648438 "/>
<path style=" stroke:none;fill-rule:nonzero;fill:rgb(82.352942%,99.607843%,44.313726%);fill-opacity:1;" d="M 6 10.628906 C 6.023438 10.636719 6.050781 10.640625 6.074219 10.648438 C 6.0625 10.65625 6.046875 10.667969 6.035156 10.675781 C 6.015625 10.691406 6 10.703125 5.980469 10.714844 C 5.964844 10.730469 5.945312 10.742188 5.929688 10.753906 C 5.886719 10.792969 5.886719 10.792969 5.878906 10.84375 C 5.886719 10.890625 5.886719 10.890625 5.914062 10.914062 C 5.933594 10.925781 5.933594 10.925781 5.949219 10.933594 C 5.964844 10.941406 5.976562 10.949219 5.992188 10.957031 C 6.058594 10.992188 6.128906 11.023438 6.199219 11.054688 C 6.242188 11.074219 6.242188 11.074219 6.277344 11.109375 C 6.179688 11.101562 6.101562 11.078125 6.015625 11.03125 C 6.003906 11.027344 5.992188 11.019531 5.980469 11.015625 C 5.914062 10.980469 5.867188 10.953125 5.832031 10.890625 C 5.832031 10.824219 5.832031 10.78125 5.875 10.730469 C 5.949219 10.667969 5.949219 10.667969 6 10.667969 C 6 10.65625 6 10.640625 6 10.628906 Z M 6 10.628906 "/>
<path style=" stroke:none;fill-rule:nonzero;fill:rgb(82.745099%,99.215686%,45.490196%);fill-opacity:1;" d="M 9.480469 12.148438 C 9.589844 12.179688 9.683594 12.21875 9.777344 12.277344 C 9.773438 12.289062 9.765625 12.300781 9.757812 12.316406 C 9.746094 12.316406 9.734375 12.316406 9.722656 12.316406 C 9.785156 12.371094 9.84375 12.425781 9.90625 12.480469 C 9.890625 12.488281 9.871094 12.492188 9.851562 12.5 C 9.84375 12.492188 9.832031 12.480469 9.824219 12.472656 C 9.726562 12.386719 9.628906 12.308594 9.519531 12.234375 C 9.507812 12.226562 9.496094 12.214844 9.480469 12.203125 C 9.480469 12.183594 9.480469 12.167969 9.480469 12.148438 Z M 9.480469 12.148438 "/>
<path style=" stroke:none;fill-rule:nonzero;fill:rgb(83.529413%,99.607843%,44.705883%);fill-opacity:1;" d="M 10.054688 12.609375 C 10.136719 12.679688 10.21875 12.75 10.296875 12.820312 C 10.328125 12.847656 10.359375 12.875 10.394531 12.902344 C 10.445312 12.945312 10.445312 12.945312 10.480469 12.988281 C 10.523438 13.042969 10.570312 13.082031 10.621094 13.125 C 10.636719 13.136719 10.636719 13.136719 10.648438 13.148438 C 10.648438 13.160156 10.648438 13.171875 10.648438 13.183594 C 10.578125 13.15625 10.535156 13.109375 10.480469 13.054688 C 10.445312 13.023438 10.414062 12.992188 10.378906 12.960938 C 10.363281 12.945312 10.363281 12.945312 10.347656 12.933594 C 10.300781 12.886719 10.25 12.84375 10.199219 12.800781 C 10.191406 12.792969 10.179688 12.78125 10.171875 12.773438 C 10.144531 12.75 10.117188 12.726562 10.09375 12.707031 C 10.054688 12.667969 10.054688 12.667969 10.054688 12.609375 Z M 10.054688 12.609375 "/>
<path style=" stroke:none;fill-rule:nonzero;fill:rgb(82.745099%,99.607843%,44.705883%);fill-opacity:1;" d="M 13.574219 9.871094 C 13.582031 9.871094 13.585938 9.871094 13.59375 9.871094 C 13.601562 10.007812 13.574219 10.117188 13.53125 10.246094 C 13.519531 10.273438 13.519531 10.273438 13.511719 10.300781 C 13.484375 10.378906 13.457031 10.457031 13.425781 10.535156 C 13.414062 10.535156 13.402344 10.535156 13.390625 10.535156 C 13.4375 10.328125 13.4375 10.328125 13.472656 10.234375 C 13.511719 10.117188 13.542969 9.992188 13.574219 9.871094 Z M 13.574219 9.871094 "/>
<path style=" stroke:none;fill-rule:nonzero;fill:rgb(75.686276%,98.431373%,41.176471%);fill-opacity:1;" d="M 6.277344 9.257812 C 6.332031 9.308594 6.386719 9.367188 6.390625 9.445312 C 6.390625 9.480469 6.390625 9.519531 6.390625 9.554688 C 6.363281 9.5625 6.339844 9.566406 6.316406 9.574219 C 6.316406 9.523438 6.316406 9.476562 6.316406 9.425781 C 6.300781 9.425781 6.289062 9.425781 6.277344 9.425781 C 6.277344 9.414062 6.277344 9.402344 6.277344 9.390625 C 6.296875 9.390625 6.3125 9.390625 6.332031 9.390625 C 6.320312 9.375 6.308594 9.363281 6.296875 9.351562 C 6.285156 9.351562 6.273438 9.351562 6.257812 9.351562 C 6.257812 9.332031 6.257812 9.316406 6.257812 9.296875 C 6.207031 9.292969 6.207031 9.292969 6.164062 9.308594 C 6.128906 9.316406 6.128906 9.316406 6.09375 9.296875 C 6.09375 9.285156 6.09375 9.273438 6.09375 9.257812 C 6.160156 9.234375 6.210938 9.238281 6.277344 9.257812 Z M 6.242188 9.425781 C 6.277344 9.445312 6.277344 9.445312 6.277344 9.445312 Z M 6.242188 9.425781 "/>
<path style=" stroke:none;fill-rule:nonzero;fill:rgb(81.568629%,99.215686%,43.137255%);fill-opacity:1;" d="M 13.148438 12.425781 C 13.167969 12.4375 13.183594 12.449219 13.203125 12.464844 C 13.207031 12.511719 13.203125 12.558594 13.199219 12.609375 C 13.199219 12.621094 13.199219 12.636719 13.195312 12.648438 C 13.1875 12.773438 13.171875 12.894531 13.148438 13.019531 C 13.136719 13.011719 13.125 13.007812 13.109375 13 C 13.109375 12.871094 13.117188 12.746094 13.128906 12.621094 C 13.132812 12.601562 13.132812 12.582031 13.136719 12.5625 C 13.140625 12.515625 13.144531 12.472656 13.148438 12.425781 Z M 13.148438 12.425781 "/>
<path style=" stroke:none;fill-rule:nonzero;fill:rgb(81.568629%,100%,43.921569%);fill-opacity:1;" d="M 13.796875 8.148438 C 13.796875 8.34375 13.796875 8.539062 13.796875 8.742188 C 13.785156 8.742188 13.773438 8.742188 13.757812 8.742188 C 13.753906 8.765625 13.746094 8.789062 13.742188 8.816406 C 13.738281 8.710938 13.742188 8.613281 13.75 8.507812 C 13.757812 8.398438 13.757812 8.398438 13.765625 8.285156 C 13.765625 8.269531 13.765625 8.257812 13.765625 8.242188 C 13.761719 8.199219 13.761719 8.199219 13.722656 8.171875 C 13.710938 8.164062 13.699219 8.15625 13.683594 8.148438 C 13.742188 8.128906 13.742188 8.128906 13.796875 8.148438 Z M 13.796875 8.148438 "/>
<path style=" stroke:none;fill-rule:nonzero;fill:rgb(83.92157%,99.607843%,45.882353%);fill-opacity:1;" d="M 6.59375 10.203125 C 6.609375 10.210938 6.628906 10.214844 6.648438 10.222656 C 6.484375 10.351562 6.316406 10.472656 6.148438 10.59375 C 6.148438 10.574219 6.148438 10.554688 6.148438 10.535156 C 6.1875 10.503906 6.1875 10.503906 6.242188 10.464844 C 6.328125 10.40625 6.328125 10.40625 6.410156 10.339844 C 6.472656 10.289062 6.527344 10.246094 6.59375 10.203125 Z M 6.59375 10.203125 "/>
<path style=" stroke:none;fill-rule:nonzero;fill:rgb(84.313726%,99.607843%,46.27451%);fill-opacity:1;" d="M 12.964844 11.019531 C 12.957031 11.035156 12.949219 11.054688 12.945312 11.074219 C 12.90625 11.09375 12.871094 11.109375 12.832031 11.125 C 12.789062 11.144531 12.746094 11.160156 12.703125 11.183594 C 12.691406 11.1875 12.679688 11.195312 12.664062 11.199219 C 12.636719 11.210938 12.613281 11.222656 12.585938 11.234375 C 12.519531 11.265625 12.464844 11.285156 12.390625 11.277344 C 12.445312 11.234375 12.496094 11.207031 12.5625 11.179688 C 12.671875 11.136719 12.773438 11.089844 12.878906 11.039062 C 12.925781 11.019531 12.925781 11.019531 12.964844 11.019531 Z M 12.964844 11.019531 "/>
<path style=" stroke:none;fill-rule:nonzero;fill:rgb(75.686276%,98.823529%,42.352942%);fill-opacity:1;" d="M 6.203125 9.351562 C 6.214844 9.359375 6.226562 9.363281 6.242188 9.371094 C 6.234375 9.382812 6.230469 9.394531 6.222656 9.40625 C 6.210938 9.402344 6.199219 9.394531 6.183594 9.390625 C 6.128906 9.382812 6.128906 9.382812 6.074219 9.390625 C 6.03125 9.421875 6.03125 9.421875 6.03125 9.480469 C 6.03125 9.539062 6.03125 9.539062 6.074219 9.574219 C 6.136719 9.578125 6.136719 9.578125 6.203125 9.574219 C 6.222656 9.574219 6.242188 9.574219 6.257812 9.574219 C 6.230469 9.621094 6.230469 9.621094 6.183594 9.667969 C 6.128906 9.675781 6.128906 9.675781 6.074219 9.667969 C 6.0625 9.65625 6.050781 9.640625 6.035156 9.628906 C 6.035156 9.617188 6.035156 9.605469 6.035156 9.59375 C 6.023438 9.582031 6.011719 9.566406 6 9.554688 C 5.988281 9.425781 5.988281 9.425781 6.019531 9.371094 C 6.082031 9.339844 6.136719 9.347656 6.203125 9.351562 Z M 6.203125 9.351562 "/>
<path style=" stroke:none;fill-rule:nonzero;fill:rgb(84.705883%,99.607843%,45.490196%);fill-opacity:1;" d="M 13.722656 8.90625 C 13.734375 8.914062 13.746094 8.917969 13.757812 8.925781 C 13.761719 9.046875 13.75 9.164062 13.730469 9.285156 C 13.730469 9.304688 13.726562 9.324219 13.722656 9.34375 C 13.71875 9.390625 13.710938 9.4375 13.703125 9.480469 C 13.691406 9.476562 13.679688 9.46875 13.667969 9.464844 C 13.679688 9.277344 13.699219 9.09375 13.722656 8.90625 Z M 13.722656 8.90625 "/>
<path style=" stroke:none;fill-rule:nonzero;fill:rgb(83.92157%,100%,44.705883%);fill-opacity:1;" d="M 10.871094 12.554688 C 10.949219 12.5625 10.984375 12.609375 11.035156 12.667969 C 11.050781 12.679688 11.066406 12.695312 11.082031 12.710938 C 11.136719 12.765625 11.1875 12.816406 11.242188 12.871094 C 11.234375 12.890625 11.230469 12.90625 11.222656 12.925781 C 11.210938 12.914062 11.210938 12.914062 11.203125 12.898438 C 11.144531 12.832031 11.089844 12.777344 11.019531 12.722656 C 10.964844 12.667969 10.914062 12.617188 10.871094 12.554688 Z M 10.871094 12.554688 "/>
<path style=" stroke:none;fill-rule:nonzero;fill:rgb(85.09804%,100%,45.882353%);fill-opacity:1;" d="M 10.554688 4.964844 C 10.566406 4.964844 10.578125 4.964844 10.59375 4.964844 C 10.566406 5.136719 10.503906 5.296875 10.445312 5.464844 C 10.4375 5.464844 10.433594 5.464844 10.425781 5.464844 C 10.417969 5.382812 10.433594 5.324219 10.464844 5.25 C 10.5 5.15625 10.527344 5.058594 10.554688 4.964844 Z M 10.554688 4.964844 "/>
<path style=" stroke:none;fill-rule:nonzero;fill:rgb(84.705883%,100%,47.058824%);fill-opacity:1;" d="M 9.316406 7.40625 C 9.332031 7.40625 9.351562 7.40625 9.371094 7.40625 C 9.335938 7.480469 9.289062 7.546875 9.242188 7.613281 C 9.234375 7.625 9.226562 7.636719 9.21875 7.648438 C 9.175781 7.707031 9.136719 7.757812 9.074219 7.796875 C 9.101562 7.722656 9.136719 7.664062 9.183594 7.601562 C 9.222656 7.550781 9.257812 7.503906 9.289062 7.449219 C 9.300781 7.425781 9.300781 7.425781 9.316406 7.40625 Z M 9.316406 7.40625 "/>
<path style=" stroke:none;fill-rule:nonzero;fill:rgb(85.490197%,100%,45.09804%);fill-opacity:1;" d="M 13.90625 5.019531 C 13.917969 5.035156 13.933594 5.054688 13.945312 5.074219 C 13.929688 5.121094 13.929688 5.121094 13.90625 5.179688 C 13.894531 5.199219 13.886719 5.21875 13.878906 5.238281 C 13.867188 5.265625 13.867188 5.265625 13.851562 5.296875 C 13.839844 5.320312 13.839844 5.320312 13.832031 5.347656 C 13.78125 5.457031 13.78125 5.457031 13.742188 5.5 C 13.71875 5.429688 13.730469 5.417969 13.761719 5.351562 C 13.8125 5.242188 13.859375 5.132812 13.90625 5.019531 Z M 13.90625 5.019531 "/>
<path style=" stroke:none;fill-rule:nonzero;fill:rgb(87.058824%,99.607843%,45.882353%);fill-opacity:1;" d="M 11.183594 8.703125 C 11.191406 8.714844 11.199219 8.726562 11.203125 8.742188 C 11.152344 8.796875 11.097656 8.84375 11.035156 8.890625 C 11.023438 8.890625 11.011719 8.890625 11 8.890625 C 11 8.902344 11 8.914062 11 8.925781 C 10.972656 8.949219 10.972656 8.949219 10.9375 8.972656 C 10.898438 9 10.867188 9.023438 10.832031 9.054688 C 10.84375 8.984375 10.871094 8.957031 10.925781 8.910156 C 10.949219 8.890625 10.949219 8.890625 10.972656 8.871094 C 11.042969 8.816406 11.113281 8.757812 11.183594 8.703125 Z M 11.183594 8.703125 "/>
<path style=" stroke:none;fill-rule:nonzero;fill:rgb(85.09804%,100%,45.09804%);fill-opacity:1;" d="M 9.648438 6.964844 C 9.652344 6.976562 9.660156 6.988281 9.667969 7 C 9.636719 7.042969 9.609375 7.089844 9.578125 7.132812 C 9.570312 7.144531 9.5625 7.15625 9.554688 7.171875 C 9.507812 7.246094 9.453125 7.308594 9.390625 7.371094 C 9.410156 7.308594 9.425781 7.257812 9.464844 7.203125 C 9.476562 7.203125 9.488281 7.203125 9.5 7.203125 C 9.507812 7.171875 9.511719 7.144531 9.519531 7.109375 C 9.53125 7.109375 9.542969 7.109375 9.554688 7.109375 C 9.558594 7.097656 9.566406 7.082031 9.570312 7.066406 C 9.589844 7.019531 9.609375 6.996094 9.648438 6.964844 Z M 9.648438 6.964844 "/>
<path style=" stroke:none;fill-rule:nonzero;fill:rgb(81.568629%,99.607843%,45.09804%);fill-opacity:1;" d="M 10.683594 13.222656 C 10.796875 13.3125 10.886719 13.410156 10.980469 13.519531 C 10.976562 13.53125 10.96875 13.542969 10.964844 13.554688 C 10.707031 13.347656 10.707031 13.347656 10.683594 13.222656 Z M 10.683594 13.222656 "/>
<path style=" stroke:none;fill-rule:nonzero;fill:rgb(82.352942%,99.607843%,44.313726%);fill-opacity:1;" d="M 13.074219 13.167969 C 13.082031 13.167969 13.085938 13.167969 13.09375 13.167969 C 13.097656 13.3125 13.089844 13.449219 13.054688 13.59375 C 13.042969 13.585938 13.03125 13.582031 13.019531 13.574219 C 13.015625 13.476562 13.027344 13.390625 13.046875 13.296875 C 13.050781 13.285156 13.050781 13.273438 13.054688 13.257812 C 13.0625 13.226562 13.066406 13.199219 13.074219 13.167969 Z M 13.074219 13.167969 "/>
<path style=" stroke:none;fill-rule:nonzero;fill:rgb(83.137256%,99.607843%,42.745098%);fill-opacity:1;" d="M 12.648438 12.390625 C 12.652344 12.390625 12.660156 12.390625 12.667969 12.390625 C 12.664062 12.4375 12.660156 12.484375 12.660156 12.53125 C 12.65625 12.550781 12.65625 12.550781 12.65625 12.570312 C 12.652344 12.640625 12.644531 12.710938 12.628906 12.777344 C 12.617188 12.777344 12.605469 12.777344 12.59375 12.777344 C 12.597656 12.675781 12.605469 12.570312 12.609375 12.464844 C 12.625 12.464844 12.636719 12.464844 12.648438 12.464844 C 12.648438 12.4375 12.648438 12.414062 12.648438 12.390625 Z M 12.648438 12.390625 "/>
<path style=" stroke:none;fill-rule:nonzero;fill:rgb(84.705883%,99.607843%,45.09804%);fill-opacity:1;" d="M 13.074219 11.816406 C 13.023438 11.867188 12.964844 11.878906 12.898438 11.902344 C 12.886719 11.90625 12.871094 11.910156 12.859375 11.914062 C 12.765625 11.945312 12.765625 11.945312 12.722656 11.945312 C 12.722656 11.933594 12.722656 11.921875 12.722656 11.90625 C 12.761719 11.890625 12.796875 11.875 12.835938 11.859375 C 12.855469 11.851562 12.878906 11.84375 12.898438 11.835938 C 12.960938 11.816406 13.007812 11.8125 13.074219 11.816406 Z M 13.074219 11.816406 "/>
<path style=" stroke:none;fill-rule:nonzero;fill:rgb(81.568629%,99.607843%,43.529412%);fill-opacity:1;" d="M 12.074219 15.332031 C 12.105469 15.382812 12.128906 15.425781 12.152344 15.480469 C 12.15625 15.496094 12.164062 15.511719 12.171875 15.527344 C 12.183594 15.574219 12.183594 15.574219 12.183594 15.648438 C 12.171875 15.648438 12.160156 15.648438 12.148438 15.648438 C 12.132812 15.601562 12.117188 15.558594 12.101562 15.511719 C 12.097656 15.5 12.089844 15.484375 12.085938 15.472656 C 12.074219 15.4375 12.066406 15.40625 12.054688 15.371094 C 12.0625 15.359375 12.066406 15.347656 12.074219 15.332031 Z M 12.074219 15.332031 "/>
<path style=" stroke:none;fill-rule:nonzero;fill:rgb(87.843138%,100%,48.627451%);fill-opacity:1;" d="M 10.390625 11.742188 C 10.390625 11.746094 10.390625 11.753906 10.390625 11.757812 C 10.285156 11.796875 10.203125 11.796875 10.09375 11.789062 C 10.078125 11.789062 10.066406 11.789062 10.050781 11.785156 C 10.015625 11.785156 9.980469 11.78125 9.945312 11.777344 C 9.945312 11.773438 9.945312 11.765625 9.945312 11.757812 C 10.09375 11.746094 10.238281 11.738281 10.390625 11.742188 Z M 10.390625 11.742188 "/>
<path style=" stroke:none;fill-rule:nonzero;fill:rgb(82.352942%,99.607843%,46.27451%);fill-opacity:1;" d="M 12.796875 14.425781 C 12.808594 14.4375 12.820312 14.449219 12.832031 14.464844 C 12.808594 14.542969 12.785156 14.621094 12.757812 14.703125 C 12.746094 14.703125 12.734375 14.703125 12.722656 14.703125 C 12.734375 14.601562 12.757812 14.519531 12.796875 14.425781 Z M 12.796875 14.425781 "/>
<path style=" stroke:none;fill-rule:nonzero;fill:rgb(84.705883%,100%,45.09804%);fill-opacity:1;" d="M 8.871094 8 C 8.882812 8 8.894531 8 8.90625 8 C 8.882812 8.074219 8.847656 8.125 8.792969 8.183594 C 8.78125 8.195312 8.765625 8.210938 8.753906 8.226562 C 8.742188 8.238281 8.734375 8.246094 8.722656 8.257812 C 8.714844 8.242188 8.710938 8.222656 8.703125 8.203125 C 8.730469 8.167969 8.730469 8.167969 8.765625 8.128906 C 8.804688 8.085938 8.839844 8.046875 8.871094 8 Z M 8.871094 8 "/>
<path style=" stroke:none;fill-rule:nonzero;fill:rgb(85.09804%,99.607843%,43.137255%);fill-opacity:1;" d="M 11 13.609375 C 11.054688 13.617188 11.070312 13.628906 11.109375 13.667969 C 11.121094 13.683594 11.132812 13.699219 11.144531 13.714844 C 11.15625 13.730469 11.167969 13.746094 11.179688 13.761719 C 11.1875 13.773438 11.195312 13.785156 11.203125 13.796875 C 11.183594 13.804688 11.183594 13.804688 11.167969 13.816406 C 11.140625 13.789062 11.117188 13.765625 11.09375 13.742188 C 11.09375 13.730469 11.09375 13.714844 11.09375 13.703125 C 11.082031 13.699219 11.070312 13.695312 11.058594 13.6875 C 11.019531 13.667969 11.019531 13.667969 11 13.609375 Z M 11 13.609375 "/>
<path style=" stroke:none;fill-rule:nonzero;fill:rgb(82.745099%,99.607843%,44.705883%);fill-opacity:1;" d="M 10.816406 4.128906 C 10.816406 4.140625 10.816406 4.152344 10.816406 4.167969 C 10.804688 4.175781 10.796875 4.183594 10.789062 4.191406 C 10.75 4.234375 10.746094 4.269531 10.738281 4.328125 C 10.734375 4.347656 10.730469 4.363281 10.726562 4.382812 C 10.726562 4.398438 10.722656 4.410156 10.722656 4.425781 C 10.714844 4.425781 10.710938 4.425781 10.703125 4.425781 C 10.703125 4.386719 10.699219 4.347656 10.699219 4.308594 C 10.699219 4.289062 10.699219 4.265625 10.699219 4.242188 C 10.703125 4.183594 10.703125 4.183594 10.726562 4.148438 C 10.757812 4.128906 10.757812 4.128906 10.816406 4.128906 Z M 10.816406 4.128906 "/>
<path style=" stroke:none;fill-rule:nonzero;fill:rgb(84.313726%,99.607843%,43.137255%);fill-opacity:1;" d="M 12.609375 12.390625 C 12.605469 12.40625 12.597656 12.425781 12.59375 12.445312 C 12.507812 12.476562 12.421875 12.492188 12.332031 12.464844 C 12.386719 12.433594 12.433594 12.417969 12.492188 12.40625 C 12.507812 12.402344 12.523438 12.398438 12.535156 12.394531 C 12.574219 12.390625 12.574219 12.390625 12.609375 12.390625 Z M 12.609375 12.390625 "/>
<path style=" stroke:none;fill-rule:nonzero;fill:rgb(84.313726%,99.607843%,44.705883%);fill-opacity:1;" d="M 12.203125 15.722656 C 12.210938 15.746094 12.214844 15.769531 12.222656 15.796875 C 12.253906 15.773438 12.285156 15.746094 12.316406 15.722656 C 12.296875 15.828125 12.296875 15.828125 12.277344 15.871094 C 12.253906 15.871094 12.230469 15.871094 12.203125 15.871094 C 12.203125 15.820312 12.203125 15.773438 12.203125 15.722656 Z M 12.203125 15.722656 "/>
<path style=" stroke:none;fill-rule:nonzero;fill:rgb(82.745099%,99.607843%,43.529412%);fill-opacity:1;" d="M 12.683594 14.777344 C 12.691406 14.777344 12.699219 14.777344 12.703125 14.777344 C 12.695312 14.929688 12.695312 14.929688 12.648438 14.992188 C 12.636719 15 12.625 15.007812 12.609375 15.019531 C 12.621094 14.929688 12.648438 14.859375 12.683594 14.777344 Z M 12.683594 14.777344 "/>
<path style=" stroke:none;fill-rule:nonzero;fill:rgb(82.745099%,99.215686%,45.882353%);fill-opacity:1;" d="M 10.261719 12.425781 C 10.285156 12.429688 10.285156 12.429688 10.3125 12.4375 C 10.324219 12.4375 10.339844 12.441406 10.351562 12.445312 C 10.351562 12.457031 10.351562 12.46875 10.351562 12.480469 C 10.320312 12.480469 10.292969 12.476562 10.261719 12.472656 C 10.246094 12.472656 10.226562 12.472656 10.210938 12.46875 C 10.167969 12.464844 10.167969 12.464844 10.128906 12.425781 C 10.179688 12.402344 10.207031 12.414062 10.261719 12.425781 Z M 10.261719 12.425781 "/>
<path style=" stroke:none;fill-rule:nonzero;fill:rgb(84.705883%,99.607843%,43.137255%);fill-opacity:1;" d="M 10.648438 4.683594 C 10.652344 4.683594 10.660156 4.683594 10.667969 4.683594 C 10.65625 4.777344 10.644531 4.855469 10.609375 4.945312 C 10.605469 4.945312 10.597656 4.945312 10.59375 4.945312 C 10.597656 4.871094 10.605469 4.796875 10.609375 4.722656 C 10.625 4.722656 10.636719 4.722656 10.648438 4.722656 C 10.648438 4.710938 10.648438 4.699219 10.648438 4.683594 Z M 10.648438 4.683594 "/>
<path style=" stroke:none;fill-rule:nonzero;fill:rgb(82.352942%,99.607843%,45.490196%);fill-opacity:1;" d="M 12.871094 14.148438 C 12.90625 14.203125 12.90625 14.203125 12.902344 14.242188 C 12.890625 14.277344 12.882812 14.316406 12.871094 14.351562 C 12.859375 14.351562 12.847656 14.351562 12.832031 14.351562 C 12.828125 14.363281 12.820312 14.375 12.816406 14.390625 C 12.820312 14.359375 12.828125 14.328125 12.832031 14.300781 C 12.835938 14.285156 12.839844 14.265625 12.84375 14.25 C 12.851562 14.203125 12.851562 14.203125 12.871094 14.148438 Z M 12.871094 14.148438 "/>
<path style=" stroke:none;fill-rule:nonzero;fill:rgb(74.509805%,98.039216%,41.568628%);fill-opacity:1;" d="M 9.480469 12.148438 C 9.519531 12.160156 9.554688 12.171875 9.59375 12.183594 C 9.597656 12.214844 9.605469 12.246094 9.609375 12.277344 C 9.558594 12.257812 9.523438 12.246094 9.480469 12.203125 C 9.480469 12.183594 9.480469 12.167969 9.480469 12.148438 Z M 9.480469 12.148438 "/>
<path style=" stroke:none;fill-rule:nonzero;fill:rgb(85.09804%,99.607843%,47.058824%);fill-opacity:1;" d="M 13.628906 9.59375 C 13.667969 9.648438 13.667969 9.648438 13.664062 9.695312 C 13.660156 9.710938 13.65625 9.726562 13.652344 9.746094 C 13.648438 9.761719 13.644531 9.777344 13.640625 9.792969 C 13.632812 9.8125 13.632812 9.8125 13.628906 9.832031 C 13.617188 9.832031 13.605469 9.832031 13.59375 9.832031 C 13.605469 9.753906 13.617188 9.675781 13.628906 9.59375 Z M 13.628906 9.59375 "/>
<path style=" stroke:none;fill-rule:nonzero;fill:rgb(86.666667%,100%,47.450981%);fill-opacity:1;" d="M 14 4.757812 C 14.011719 4.769531 14.023438 4.785156 14.035156 4.796875 C 14.027344 4.828125 14.019531 4.855469 14.011719 4.886719 C 14.007812 4.90625 14.003906 4.921875 14 4.9375 C 13.992188 4.953125 13.988281 4.96875 13.980469 4.980469 C 13.964844 4.988281 13.945312 4.992188 13.925781 5 C 13.933594 4.96875 13.945312 4.933594 13.953125 4.902344 C 13.957031 4.882812 13.960938 4.863281 13.96875 4.84375 C 13.980469 4.796875 13.980469 4.796875 14 4.757812 Z M 14 4.757812 "/>
<path style=" stroke:none;fill-rule:nonzero;fill:rgb(81.176472%,99.607843%,45.490196%);fill-opacity:1;" d="M 12.40625 15.480469 C 12.421875 15.527344 12.429688 15.550781 12.410156 15.59375 C 12.40625 15.609375 12.398438 15.621094 12.390625 15.632812 C 12.382812 15.648438 12.375 15.660156 12.367188 15.675781 C 12.363281 15.683594 12.359375 15.695312 12.351562 15.703125 C 12.339844 15.703125 12.328125 15.703125 12.316406 15.703125 C 12.339844 15.625 12.371094 15.554688 12.40625 15.480469 Z M 12.40625 15.480469 "/>
<path style=" stroke:none;fill-rule:nonzero;fill:rgb(83.137256%,99.607843%,43.529412%);fill-opacity:1;" d="M 11.980469 15.109375 C 12.035156 15.171875 12.054688 15.234375 12.074219 15.316406 C 12.054688 15.324219 12.054688 15.324219 12.035156 15.332031 C 12.027344 15.308594 12.019531 15.285156 12.007812 15.265625 C 12.003906 15.25 12 15.238281 11.992188 15.226562 C 11.980469 15.183594 11.980469 15.183594 11.980469 15.109375 Z M 11.980469 15.109375 "/>
<path style=" stroke:none;fill-rule:nonzero;fill:rgb(85.882354%,99.607843%,43.137255%);fill-opacity:1;" d="M 9.019531 7.816406 C 9.035156 7.820312 9.054688 7.828125 9.074219 7.832031 C 9.03125 7.886719 8.988281 7.941406 8.945312 8 C 8.933594 7.980469 8.921875 7.964844 8.90625 7.945312 C 8.925781 7.9375 8.925781 7.9375 8.941406 7.933594 C 8.992188 7.898438 9 7.871094 9.019531 7.816406 Z M 9.019531 7.816406 "/>
<path style=" stroke:none;fill-rule:nonzero;fill:rgb(81.960785%,99.607843%,46.27451%);fill-opacity:1;" d="M 14.035156 4.128906 C 14.070312 4.136719 14.070312 4.136719 14.109375 4.148438 C 14.15625 4.214844 14.152344 4.253906 14.148438 4.332031 C 14.136719 4.328125 14.125 4.320312 14.109375 4.316406 C 14.097656 4.273438 14.085938 4.226562 14.074219 4.183594 C 14.0625 4.167969 14.050781 4.148438 14.035156 4.128906 Z M 14.035156 4.128906 "/>
<path style=" stroke:none;fill-rule:nonzero;fill:rgb(85.490197%,99.607843%,47.450981%);fill-opacity:1;" d="M 7.945312 11.609375 C 7.976562 11.613281 8.007812 11.617188 8.042969 11.617188 C 8.058594 11.621094 8.078125 11.621094 8.097656 11.621094 C 8.144531 11.628906 8.179688 11.640625 8.222656 11.667969 C 8.191406 11.667969 8.15625 11.667969 8.125 11.667969 C 8.097656 11.667969 8.097656 11.667969 8.070312 11.667969 C 8.023438 11.667969 7.988281 11.660156 7.945312 11.648438 C 7.945312 11.636719 7.945312 11.625 7.945312 11.609375 Z M 7.945312 11.609375 "/>
<path style=" stroke:none;fill-rule:nonzero;fill:rgb(80.784315%,99.607843%,44.705883%);fill-opacity:1;" d="M 5.945312 9.351562 C 5.9375 9.386719 5.9375 9.386719 5.925781 9.425781 C 5.90625 9.433594 5.90625 9.433594 5.890625 9.445312 C 5.875 9.492188 5.875 9.492188 5.871094 9.535156 C 5.863281 9.535156 5.859375 9.535156 5.851562 9.535156 C 5.847656 9.488281 5.839844 9.4375 5.832031 9.390625 C 5.902344 9.351562 5.902344 9.351562 5.945312 9.351562 Z M 5.945312 9.351562 "/>
<path style=" stroke:none;fill-rule:nonzero;fill:rgb(83.137256%,99.607843%,45.882353%);fill-opacity:1;" d="M 12.964844 13.757812 C 13 13.816406 13 13.816406 12.992188 13.875 C 12.988281 13.890625 12.984375 13.910156 12.980469 13.925781 C 12.96875 13.925781 12.957031 13.925781 12.945312 13.925781 C 12.9375 13.9375 12.933594 13.949219 12.925781 13.964844 C 12.941406 13.820312 12.941406 13.820312 12.964844 13.757812 Z M 12.964844 13.757812 "/>
<path style=" stroke:none;fill-rule:nonzero;fill:rgb(86.666667%,99.607843%,47.843137%);fill-opacity:1;" d="M 13.796875 8.148438 C 13.796875 8.210938 13.796875 8.269531 13.796875 8.332031 C 13.789062 8.332031 13.785156 8.332031 13.777344 8.332031 C 13.777344 8.304688 13.777344 8.304688 13.773438 8.273438 C 13.765625 8.203125 13.765625 8.203125 13.722656 8.167969 C 13.710938 8.160156 13.699219 8.15625 13.683594 8.148438 C 13.742188 8.128906 13.742188 8.128906 13.796875 8.148438 Z M 13.796875 8.148438 "/>
<path style=" stroke:none;fill-rule:nonzero;fill:rgb(84.313726%,99.607843%,41.176471%);fill-opacity:1;" d="M 9.316406 7.40625 C 9.332031 7.40625 9.351562 7.40625 9.371094 7.40625 C 9.34375 7.46875 9.308594 7.507812 9.257812 7.554688 C 9.257812 7.488281 9.277344 7.460938 9.316406 7.40625 Z M 9.316406 7.40625 "/>
<path style=" stroke:none;fill-rule:nonzero;fill:rgb(83.137256%,99.607843%,46.27451%);fill-opacity:1;" d="M 11.832031 14.796875 C 11.882812 14.855469 11.90625 14.910156 11.925781 14.980469 C 11.914062 14.980469 11.902344 14.980469 11.890625 14.980469 C 11.84375 14.917969 11.828125 14.875 11.832031 14.796875 Z M 11.832031 14.796875 "/>
<path style=" stroke:none;fill-rule:nonzero;fill:rgb(82.352942%,99.607843%,43.137255%);fill-opacity:1;" d="M 13.09375 11.777344 C 13.125 11.777344 13.15625 11.777344 13.183594 11.777344 C 13.203125 11.796875 13.203125 11.796875 13.203125 11.851562 C 13.203125 11.871094 13.203125 11.890625 13.203125 11.90625 C 13.191406 11.90625 13.179688 11.90625 13.167969 11.90625 C 13.160156 11.875 13.15625 11.847656 13.148438 11.816406 C 13.128906 11.808594 13.113281 11.800781 13.09375 11.796875 C 13.09375 11.789062 13.09375 11.785156 13.09375 11.777344 Z M 13.09375 11.777344 "/>
<path style=" stroke:none;fill-rule:nonzero;fill:rgb(85.490197%,99.607843%,41.568628%);fill-opacity:1;" d="M 6.296875 11.109375 C 6.363281 11.121094 6.398438 11.132812 6.445312 11.183594 C 6.425781 11.195312 6.425781 11.195312 6.40625 11.203125 C 6.371094 11.1875 6.332031 11.167969 6.296875 11.148438 C 6.296875 11.136719 6.296875 11.125 6.296875 11.109375 Z M 6.296875 11.109375 "/>
<path style=" stroke:none;fill-rule:nonzero;fill:rgb(86.666667%,99.607843%,44.313726%);fill-opacity:1;" d="M 12.464844 13.628906 C 12.464844 13.691406 12.453125 13.753906 12.445312 13.816406 C 12.40625 13.757812 12.40625 13.757812 12.410156 13.703125 C 12.417969 13.675781 12.417969 13.675781 12.425781 13.648438 C 12.4375 13.640625 12.449219 13.636719 12.464844 13.628906 Z M 12.464844 13.628906 "/>
<path style=" stroke:none;fill-rule:nonzero;fill:rgb(84.705883%,100%,47.058824%);fill-opacity:1;" d="M 13.128906 10.90625 C 13.128906 10.925781 13.128906 10.945312 13.128906 10.964844 C 13.085938 10.996094 13.085938 10.996094 13.035156 11.019531 C 13.019531 11.011719 13 11.007812 12.980469 11 C 13.054688 10.953125 13.054688 10.953125 13.128906 10.90625 Z M 13.128906 10.90625 "/>
<path style=" stroke:none;fill-rule:nonzero;fill:rgb(80.784315%,98.039216%,45.882353%);fill-opacity:1;" d="M 6.242188 9.757812 C 6.222656 9.777344 6.222656 9.777344 6.1875 9.78125 C 6.148438 9.777344 6.113281 9.777344 6.074219 9.777344 C 6.082031 9.765625 6.085938 9.753906 6.09375 9.742188 C 6.164062 9.71875 6.175781 9.714844 6.242188 9.757812 Z M 6.242188 9.757812 "/>
</g>
</svg>
